{
    "asset" : {
        "generator" : "Khronos glTF Blender I/O v1.6.16",
        "version" : "2.0"
    },
    "scene" : 0,
    "scenes" : [
        {
            "name" : "Scene",
            "nodes" : [
                0
            ]
        }
    ],
    "nodes" : [
        {
            "mesh" : 0,
            "name" : "BEAN"
        }
    ],
    "materials" : [
        {
            "name" : "default",
            "normalTexture" : {
                "index" : 0
            },
            "pbrMetallicRoughness" : {
                "baseColorTexture" : {
                    "index" : 1
                },
                "metallicFactor" : 0
            }
        }
    ],
    "meshes" : [
        {
            "name" : "BEAN group1_1",
            "primitives" : [
                {
                    "attributes" : {
                        "POSITION" : 0,
                        "NORMAL" : 1,
                        "TEXCOORD_0" : 2
                    },
                    "indices" : 3,
                    "material" : 0
                }
            ]
        }
    ],
    "textures" : [
        {
            "sampler" : 0,
            "source" : 0
        },
        {
            "sampler" : 0,
            "source" : 1
        }
    ],
    "images" : [
        {
            "bufferView" : 4,
            "mimeType" : "image/jpeg",
            "name" : "NormalMap"
        },
        {
            "bufferView" : 5,
            "mimeType" : "image/jpeg",
            "name" : "maps_coffee_bean_color"
        }
    ],
    "accessors" : [
        {
            "bufferView" : 0,
            "componentType" : 5126,
            "count" : 921,
            "max" : [
                5.73678731918335,
                2.6666388511657715,
                4.207749366760254
            ],
            "min" : [
                -5.431242942810059,
                -2.3316292762756348,
                -4.718158721923828
            ],
            "type" : "VEC3"
        },
        {
            "bufferView" : 1,
            "componentType" : 5126,
            "count" : 921,
            "type" : "VEC3"
        },
        {
            "bufferView" : 2,
            "componentType" : 5126,
            "count" : 921,
            "type" : "VEC2"
        },
        {
            "bufferView" : 3,
            "componentType" : 5123,
            "count" : 1545,
            "type" : "SCALAR"
        }
    ],
    "bufferViews" : [
        {
            "buffer" : 0,
            "byteLength" : 11052,
            "byteOffset" : 0
        },
        {
            "buffer" : 0,
            "byteLength" : 11052,
            "byteOffset" : 11052
        },
        {
            "buffer" : 0,
            "byteLength" : 7368,
            "byteOffset" : 22104
        },
        {
            "buffer" : 0,
            "byteLength" : 3090,
            "byteOffset" : 29472
        },
        {
            "buffer" : 0,
            "byteLength" : 774495,
            "byteOffset" : 32564
        },
        {
            "buffer" : 0,
            "byteLength" : 346988,
            "byteOffset" : 807060
        }
    ],
    "samplers" : [
        {
            "magFilter" : 9729,
            "minFilter" : 9987
        }
    ],
    "buffers" : [
        {
            "byteLength" : 1154048,
            "uri" : "data:application/octet-stream;base64,"
        }
    ]
}
